<?xml version="1.0" encoding="UTF-8"?>
<svg xmlns="http://www.w3.org/2000/svg" width="406" height="97" viewBox="0 0 406 97" fill="none">
  <rect width="405.046" height="95.3047" transform="translate(0.437378 0.836884) rotate(-0.0478303)" fill="#DE0000"></rect>
  <path d="M43.4922 49.5623C44.1953 50.3436 44.7109 51.2029 45.0391 52.1404C45.3828 53.0623 45.5547 54.1404 45.5547 55.3748C45.5547 58.3123 44.4688 60.7342 42.2969 62.6404C40.125 64.5467 37.4297 65.4998 34.2109 65.4998C32.7266 65.4998 31.2422 65.2733 29.7578 64.8201C28.2734 64.3514 26.9922 63.7889 25.9141 63.1326L24.9062 64.8436H23.0312L22.7031 53.4529H24.6016C24.9922 54.8592 25.4453 56.1326 25.9609 57.2733C26.4922 58.3983 27.1875 59.4529 28.0469 60.4373C28.8594 61.3592 29.8047 62.0936 30.8828 62.6404C31.9766 63.1873 33.2422 63.4608 34.6797 63.4608C35.7578 63.4608 36.6953 63.3201 37.4922 63.0389C38.3047 62.7576 38.9609 62.3592 39.4609 61.8436C39.9609 61.3279 40.3281 60.7264 40.5625 60.0389C40.8125 59.3358 40.9375 58.5311 40.9375 57.6248C40.9375 56.2967 40.5625 55.0623 39.8125 53.9217C39.0625 52.7654 37.9453 51.8904 36.4609 51.2967C35.4453 50.8904 34.2812 50.4451 32.9688 49.9608C31.6562 49.4608 30.5234 48.992 29.5703 48.5545C27.6953 47.7108 26.2344 46.6092 25.1875 45.2498C24.1562 43.8748 23.6406 42.0858 23.6406 39.8826C23.6406 38.617 23.8984 37.4373 24.4141 36.3436C24.9297 35.2498 25.6641 34.2733 26.6172 33.4139C27.5234 32.6014 28.5938 31.9686 29.8281 31.5154C31.0625 31.0467 32.3516 30.8123 33.6953 30.8123C35.2266 30.8123 36.5938 31.0467 37.7969 31.5154C39.0156 31.9842 40.125 32.5311 41.125 33.1561L42.0859 31.5623H43.9609L44.1484 42.6014H42.25C41.9062 41.3358 41.5156 40.1248 41.0781 38.9686C40.6562 37.8123 40.1016 36.7654 39.4141 35.8279C38.7422 34.9217 37.9219 34.2029 36.9531 33.6717C35.9844 33.1248 34.7969 32.8514 33.3906 32.8514C31.9062 32.8514 30.6406 33.3279 29.5938 34.2811C28.5469 35.2342 28.0234 36.3983 28.0234 37.7733C28.0234 39.2108 28.3594 40.4061 29.0312 41.3592C29.7031 42.2967 30.6797 43.0701 31.9609 43.6795C33.1016 44.2264 34.2188 44.7029 35.3125 45.1092C36.4219 45.4998 37.4922 45.9217 38.5234 46.3748C39.4609 46.7811 40.3594 47.242 41.2188 47.7576C42.0938 48.2733 42.8516 48.8748 43.4922 49.5623ZM71.6641 53.0311C71.6641 54.6561 71.4062 56.2576 70.8906 57.8358C70.375 59.3983 69.6406 60.7264 68.6875 61.8201C67.6094 63.0701 66.3594 63.9998 64.9375 64.6092C63.5156 65.2186 61.9219 65.5233 60.1562 65.5233C58.6875 65.5233 57.2891 65.2498 55.9609 64.7029C54.6328 64.1404 53.4531 63.3279 52.4219 62.2654C51.4062 61.2186 50.5938 59.9451 49.9844 58.4451C49.3906 56.9295 49.0938 55.2342 49.0938 53.3592C49.0938 49.7498 50.1406 46.7967 52.2344 44.4998C54.3438 42.2029 57.1016 41.0545 60.5078 41.0545C63.7422 41.0545 66.4062 42.1483 68.5 44.3358C70.6094 46.5076 71.6641 49.4061 71.6641 53.0311ZM66.8125 53.0779C66.8125 51.9061 66.6953 50.6717 66.4609 49.3748C66.2266 48.0623 65.875 46.9529 65.4062 46.0467C64.9062 45.0779 64.25 44.3045 63.4375 43.7264C62.625 43.1326 61.6328 42.8358 60.4609 42.8358C59.2578 42.8358 58.2266 43.1326 57.3672 43.7264C56.5234 44.3201 55.8359 45.1326 55.3047 46.1639C54.8047 47.117 54.4531 48.2029 54.25 49.4217C54.0469 50.6404 53.9453 51.8201 53.9453 52.9608C53.9453 54.4608 54.0625 55.8514 54.2969 57.1326C54.5469 58.3983 54.9375 59.5311 55.4688 60.5311C56 61.5311 56.6641 62.3201 57.4609 62.8983C58.2734 63.4608 59.2734 63.742 60.4609 63.742C62.4141 63.742 63.9609 62.7967 65.1016 60.9061C66.2422 59.0154 66.8125 56.4061 66.8125 53.0779ZM85.8438 64.8201H74.5703V63.2733C74.9297 63.242 75.3125 63.2108 75.7188 63.1795C76.125 63.1326 76.4609 63.0701 76.7266 62.992C77.1641 62.8514 77.4922 62.6092 77.7109 62.2654C77.9297 61.9061 78.0391 61.4451 78.0391 60.8826V34.117C78.0391 33.5545 77.9141 33.0311 77.6641 32.5467C77.4297 32.0467 77.1172 31.6561 76.7266 31.3748C76.4453 31.1873 75.9297 31.0154 75.1797 30.8592C74.4297 30.7029 73.8281 30.6092 73.375 30.5779V29.0779L82.0703 28.5389L82.3984 28.8904V60.6014C82.3984 61.1483 82.5 61.6014 82.7031 61.9608C82.9062 62.3045 83.2344 62.5701 83.6875 62.7576C84.0312 62.9139 84.3672 63.0311 84.6953 63.1092C85.0391 63.1873 85.4219 63.242 85.8438 63.2733V64.8201ZM113.523 64.3983L106 64.9139L105.648 64.5858V61.6561H105.508C105.133 62.0467 104.711 62.4686 104.242 62.9217C103.773 63.3592 103.234 63.7576 102.625 64.117C101.922 64.5389 101.242 64.8592 100.586 65.0779C99.9297 65.2967 99 65.4061 97.7969 65.4061C95.75 65.4061 94.1875 64.742 93.1094 63.4139C92.0469 62.0701 91.5156 60.1248 91.5156 57.5779V46.5154C91.5156 45.9529 91.4062 45.4842 91.1875 45.1092C90.9844 44.7186 90.6797 44.3826 90.2734 44.1014C89.9922 43.9139 89.6406 43.7811 89.2188 43.7029C88.7969 43.6092 88.3516 43.5467 87.8828 43.5154V41.992L95.5938 41.4295L95.9453 41.7576V57.8123C95.9453 59.4842 96.3203 60.742 97.0703 61.5858C97.8203 62.4295 98.7188 62.8514 99.7656 62.8514C100.625 62.8514 101.391 62.7186 102.062 62.4529C102.734 62.1873 103.297 61.8748 103.75 61.5154C104.172 61.1873 104.539 60.8436 104.852 60.4842C105.18 60.1092 105.43 59.7654 105.602 59.4529V46.3514C105.602 45.8358 105.492 45.3826 105.273 44.992C105.055 44.5858 104.75 44.242 104.359 43.9608C104.078 43.7733 103.656 43.6639 103.094 43.6326C102.547 43.5858 101.93 43.5467 101.242 43.5154V41.992L109.633 41.4295L109.984 41.7576V60.1092C109.984 60.6404 110.094 61.0936 110.312 61.4686C110.531 61.8436 110.836 62.1639 111.227 62.4295C111.508 62.6014 111.844 62.7186 112.234 62.7811C112.625 62.8279 113.055 62.8592 113.523 62.8748V64.3983ZM130.633 63.8123C129.617 64.2342 128.656 64.5858 127.75 64.867C126.844 65.1639 125.734 65.3123 124.422 65.3123C122.484 65.3123 121.117 64.8279 120.32 63.8592C119.539 62.8748 119.148 61.492 119.148 59.7108V44.0545H114.977V41.8045H119.242V34.6092H123.508V41.8045H130.141V44.0545H123.555V56.9686C123.555 57.9373 123.586 58.7498 123.648 59.4061C123.727 60.0467 123.898 60.6092 124.164 61.0936C124.414 61.5467 124.789 61.8904 125.289 62.1248C125.789 62.3592 126.461 62.4764 127.305 62.4764C127.695 62.4764 128.266 62.4451 129.016 62.3826C129.781 62.3045 130.32 62.2108 130.633 62.1014V63.8123ZM144.18 64.8201H133V63.2733C133.359 63.242 133.727 63.2108 134.102 63.1795C134.492 63.1483 134.828 63.0858 135.109 62.992C135.547 62.8514 135.867 62.6092 136.07 62.2654C136.289 61.9061 136.398 61.4451 136.398 60.8826V46.6092C136.398 46.1092 136.281 45.6561 136.047 45.2498C135.828 44.8279 135.516 44.4764 135.109 44.1951C134.812 44.0076 134.383 43.8514 133.82 43.7264C133.258 43.5858 132.742 43.4998 132.273 43.4686V41.9451L140.43 41.4295L140.758 41.7576V60.6014C140.758 61.1483 140.859 61.6014 141.062 61.9608C141.281 62.3201 141.617 62.5858 142.07 62.7576C142.414 62.8983 142.75 63.0154 143.078 63.1092C143.406 63.1873 143.773 63.242 144.18 63.2733V64.8201ZM141.227 32.3123C141.227 33.2029 140.93 33.9842 140.336 34.6561C139.758 35.3123 139.039 35.6404 138.18 35.6404C137.383 35.6404 136.688 35.3279 136.094 34.7029C135.516 34.0623 135.227 33.3358 135.227 32.5233C135.227 31.6639 135.516 30.9139 136.094 30.2733C136.688 29.6326 137.383 29.3123 138.18 29.3123C139.07 29.3123 139.797 29.617 140.359 30.2264C140.938 30.8201 141.227 31.5154 141.227 32.3123ZM169.539 53.0311C169.539 54.6561 169.281 56.2576 168.766 57.8358C168.25 59.3983 167.516 60.7264 166.562 61.8201C165.484 63.0701 164.234 63.9998 162.812 64.6092C161.391 65.2186 159.797 65.5233 158.031 65.5233C156.562 65.5233 155.164 65.2498 153.836 64.7029C152.508 64.1404 151.328 63.3279 150.297 62.2654C149.281 61.2186 148.469 59.9451 147.859 58.4451C147.266 56.9295 146.969 55.2342 146.969 53.3592C146.969 49.7498 148.016 46.7967 150.109 44.4998C152.219 42.2029 154.977 41.0545 158.383 41.0545C161.617 41.0545 164.281 42.1483 166.375 44.3358C168.484 46.5076 169.539 49.4061 169.539 53.0311ZM164.688 53.0779C164.688 51.9061 164.57 50.6717 164.336 49.3748C164.102 48.0623 163.75 46.9529 163.281 46.0467C162.781 45.0779 162.125 44.3045 161.312 43.7264C160.5 43.1326 159.508 42.8358 158.336 42.8358C157.133 42.8358 156.102 43.1326 155.242 43.7264C154.398 44.3201 153.711 45.1326 153.18 46.1639C152.68 47.117 152.328 48.2029 152.125 49.4217C151.922 50.6404 151.82 51.8201 151.82 52.9608C151.82 54.4608 151.938 55.8514 152.172 57.1326C152.422 58.3983 152.812 59.5311 153.344 60.5311C153.875 61.5311 154.539 62.3201 155.336 62.8983C156.148 63.4608 157.148 63.742 158.336 63.742C160.289 63.742 161.836 62.7967 162.977 60.9061C164.117 59.0154 164.688 56.4061 164.688 53.0779ZM198.414 64.8201H187.094V63.2733C187.453 63.242 187.844 63.2108 188.266 63.1795C188.703 63.1483 189.062 63.0858 189.344 62.992C189.781 62.8514 190.102 62.6092 190.305 62.2654C190.523 61.9061 190.633 61.4451 190.633 60.8826V48.9998C190.633 47.3592 190.242 46.0936 189.461 45.2029C188.695 44.3123 187.758 43.867 186.648 43.867C185.82 43.867 185.062 43.9998 184.375 44.2654C183.688 44.5154 183.078 44.8279 182.547 45.2029C182.031 45.5623 181.617 45.9529 181.305 46.3748C181.008 46.7811 180.789 47.1092 180.648 47.3592V60.6483C180.648 61.1795 180.758 61.617 180.977 61.9608C181.195 62.3045 181.523 62.5701 181.961 62.7576C182.289 62.9139 182.641 63.0311 183.016 63.1092C183.406 63.1873 183.805 63.242 184.211 63.2733V64.8201H172.891V63.2733C173.25 63.242 173.617 63.2108 173.992 63.1795C174.383 63.1483 174.719 63.0858 175 62.992C175.438 62.8514 175.758 62.6092 175.961 62.2654C176.18 61.9061 176.289 61.4451 176.289 60.8826V46.6092C176.289 46.0779 176.172 45.5936 175.938 45.1561C175.719 44.7029 175.406 44.3358 175 44.0545C174.703 43.867 174.352 43.7342 173.945 43.6561C173.539 43.5623 173.102 43.4998 172.633 43.4686V41.9451L180.32 41.4295L180.648 41.7576V45.0154H180.766C181.141 44.6404 181.609 44.1951 182.172 43.6795C182.734 43.1483 183.266 42.7186 183.766 42.3904C184.344 42.0154 185.031 41.7029 185.828 41.4529C186.625 41.2029 187.523 41.0779 188.523 41.0779C190.742 41.0779 192.383 41.7733 193.445 43.1639C194.523 44.5389 195.062 46.3748 195.062 48.6717V60.6951C195.062 61.242 195.156 61.6873 195.344 62.0311C195.531 62.3592 195.852 62.617 196.305 62.8045C196.68 62.9608 197 63.0701 197.266 63.1326C197.547 63.1951 197.93 63.242 198.414 63.2733V64.8201ZM216.508 53.4998C217.148 54.0623 217.641 54.7108 217.984 55.4451C218.328 56.1795 218.5 57.0779 218.5 58.1404C218.5 60.2811 217.695 62.0311 216.086 63.3904C214.492 64.7498 212.422 65.4295 209.875 65.4295C208.531 65.4295 207.289 65.1873 206.148 64.7029C205.023 64.2186 204.219 63.7733 203.734 63.367L203.266 64.8904H201.508L201.273 56.8514H202.891C203.016 57.4608 203.281 58.1717 203.688 58.9842C204.094 59.7967 204.586 60.5311 205.164 61.1873C205.773 61.8748 206.5 62.4529 207.344 62.9217C208.203 63.3904 209.164 63.6248 210.227 63.6248C211.727 63.6248 212.883 63.2889 213.695 62.617C214.508 61.9295 214.914 60.9529 214.914 59.6873C214.914 59.0311 214.781 58.4686 214.516 57.9998C214.266 57.5154 213.891 57.0936 213.391 56.7342C212.875 56.3748 212.242 56.0545 211.492 55.7733C210.742 55.4764 209.906 55.1873 208.984 54.9061C208.25 54.6873 207.43 54.3904 206.523 54.0154C205.633 53.6248 204.867 53.1717 204.227 52.6561C203.539 52.1092 202.977 51.4373 202.539 50.6404C202.102 49.8436 201.883 48.9061 201.883 47.8279C201.883 45.9373 202.586 44.3358 203.992 43.0233C205.398 41.7108 207.281 41.0545 209.641 41.0545C210.547 41.0545 211.469 41.1717 212.406 41.4061C213.359 41.6404 214.133 41.9217 214.727 42.2498L215.266 41.0311H216.953L217.305 48.4608H215.688C215.359 46.8045 214.648 45.4608 213.555 44.4295C212.477 43.3826 211.156 42.8592 209.594 42.8592C208.312 42.8592 207.305 43.1795 206.57 43.8201C205.836 44.4608 205.469 45.2342 205.469 46.1404C205.469 46.8436 205.586 47.4295 205.82 47.8983C206.07 48.367 206.438 48.7654 206.922 49.0936C207.391 49.4061 207.977 49.7029 208.68 49.9842C209.398 50.2498 210.281 50.5545 211.328 50.8983C212.359 51.2264 213.328 51.6092 214.234 52.0467C215.156 52.4842 215.914 52.9686 216.508 53.4998ZM266.594 64.8201H257.641C255.656 61.7108 253.859 59.0233 252.25 56.7576C250.656 54.492 248.922 52.1561 247.047 49.7498H243.648V60.2967C243.648 60.8436 243.734 61.3279 243.906 61.7498C244.078 62.1561 244.445 62.4686 245.008 62.6873C245.289 62.7967 245.781 62.8983 246.484 62.992C247.188 63.0858 247.781 63.1404 248.266 63.1561V64.8201H234.203V63.1561C234.578 63.1248 235.117 63.0701 235.82 62.992C236.539 62.9139 237.039 62.8123 237.32 62.6873C237.789 62.4842 238.125 62.1873 238.328 61.7967C238.547 61.4061 238.656 60.9061 238.656 60.2967V36.2498C238.656 35.7029 238.578 35.2186 238.422 34.7967C238.266 34.3748 237.898 34.0545 237.32 33.8358C236.93 33.6951 236.422 33.5701 235.797 33.4608C235.172 33.3358 234.641 33.2576 234.203 33.2264V31.5623H249.555C250.961 31.5623 252.281 31.7108 253.516 32.0076C254.75 32.2889 255.867 32.7498 256.867 33.3904C257.836 34.0154 258.609 34.8358 259.188 35.8514C259.766 36.8514 260.055 38.0623 260.055 39.4842C260.055 40.7654 259.859 41.8983 259.469 42.8826C259.078 43.867 258.5 44.7186 257.734 45.4373C257.031 46.1092 256.188 46.6951 255.203 47.1951C254.219 47.6795 253.133 48.0936 251.945 48.4373C253.586 50.6092 254.945 52.4373 256.023 53.9217C257.117 55.4061 258.453 57.2108 260.031 59.3358C260.719 60.2733 261.336 60.9686 261.883 61.4217C262.445 61.8592 263 62.2186 263.547 62.4998C263.953 62.7029 264.461 62.8592 265.07 62.9686C265.68 63.0779 266.188 63.1404 266.594 63.1561V64.8201ZM254.266 40.0233C254.266 38.0076 253.688 36.4139 252.531 35.242C251.375 34.0545 249.742 33.4608 247.633 33.4608H243.648V47.7342H246.719C248.875 47.7342 250.672 47.0467 252.109 45.6717C253.547 44.2811 254.266 42.3983 254.266 40.0233ZM287.828 59.3826C286.859 61.2264 285.562 62.6951 283.938 63.7889C282.312 64.8826 280.445 65.4295 278.336 65.4295C276.477 65.4295 274.844 65.1014 273.438 64.4451C272.047 63.7889 270.898 62.8983 269.992 61.7733C269.086 60.6483 268.406 59.3358 267.953 57.8358C267.516 56.3358 267.297 54.7498 267.297 53.0779C267.297 51.5779 267.531 50.1092 268 48.6717C268.484 47.2186 269.188 45.9139 270.109 44.7576C271 43.6483 272.102 42.7576 273.414 42.0858C274.742 41.3983 276.227 41.0545 277.867 41.0545C279.555 41.0545 281 41.3201 282.203 41.8514C283.406 42.3826 284.383 43.1092 285.133 44.0311C285.852 44.9061 286.383 45.9373 286.727 47.1248C287.086 48.3123 287.266 49.6014 287.266 50.992V52.5389H271.961C271.961 54.0545 272.102 55.4295 272.383 56.6639C272.68 57.8983 273.141 58.9842 273.766 59.9217C274.375 60.8279 275.172 61.5467 276.156 62.0779C277.141 62.5936 278.312 62.8514 279.672 62.8514C281.062 62.8514 282.258 62.5311 283.258 61.8904C284.273 61.2342 285.25 60.0623 286.188 58.3748L287.828 59.3826ZM282.648 50.5701C282.648 49.6951 282.57 48.7576 282.414 47.7576C282.273 46.7576 282.039 45.9217 281.711 45.2498C281.352 44.5311 280.859 43.9451 280.234 43.492C279.609 43.0389 278.805 42.8123 277.82 42.8123C276.18 42.8123 274.812 43.4998 273.719 44.8748C272.641 46.2342 272.055 48.1326 271.961 50.5701H282.648ZM313.328 43.1404C312.625 43.2654 311.953 43.5233 311.312 43.9139C310.688 44.2889 310.148 44.9608 309.695 45.9295C308.773 48.0233 307.82 50.2108 306.836 52.492C305.852 54.7576 304.828 57.1404 303.766 59.6404C303.453 60.3592 303.117 61.2108 302.758 62.1951C302.414 63.1795 302.094 64.1248 301.797 65.0311H299.969C298.484 61.3592 297.117 58.0154 295.867 54.9998C294.617 51.9686 293.32 48.867 291.977 45.6951C291.664 44.9764 291.156 44.4217 290.453 44.0311C289.766 43.6248 289.07 43.367 288.367 43.2576V41.7108H299.055V43.3514C298.586 43.367 298 43.4686 297.297 43.6561C296.594 43.8279 296.242 44.0701 296.242 44.3826C296.242 44.4295 296.281 44.5545 296.359 44.7576C296.438 44.9451 296.516 45.1639 296.594 45.4139C297.234 47.0076 298.141 49.2342 299.312 52.0936C300.484 54.9529 301.438 57.2576 302.172 59.0076C302.734 57.6639 303.438 55.992 304.281 53.992C305.141 51.992 306.062 49.7576 307.047 47.2889C307.203 46.867 307.352 46.4764 307.492 46.117C307.633 45.742 307.703 45.367 307.703 44.992C307.703 44.7264 307.57 44.492 307.305 44.2889C307.055 44.0701 306.75 43.8826 306.391 43.7264C306.031 43.5701 305.68 43.4529 305.336 43.3748C304.992 43.2967 304.711 43.242 304.492 43.2108V41.7108H313.328V43.1404ZM325.586 64.8201H314.406V63.2733C314.766 63.242 315.133 63.2108 315.508 63.1795C315.898 63.1483 316.234 63.0858 316.516 62.992C316.953 62.8514 317.273 62.6092 317.477 62.2654C317.695 61.9061 317.805 61.4451 317.805 60.8826V46.6092C317.805 46.1092 317.688 45.6561 317.453 45.2498C317.234 44.8279 316.922 44.4764 316.516 44.1951C316.219 44.0076 315.789 43.8514 315.227 43.7264C314.664 43.5858 314.148 43.4998 313.68 43.4686V41.9451L321.836 41.4295L322.164 41.7576V60.6014C322.164 61.1483 322.266 61.6014 322.469 61.9608C322.688 62.3201 323.023 62.5858 323.477 62.7576C323.82 62.8983 324.156 63.0154 324.484 63.1092C324.812 63.1873 325.18 63.242 325.586 63.2733V64.8201ZM322.633 32.3123C322.633 33.2029 322.336 33.9842 321.742 34.6561C321.164 35.3123 320.445 35.6404 319.586 35.6404C318.789 35.6404 318.094 35.3279 317.5 34.7029C316.922 34.0623 316.633 33.3358 316.633 32.5233C316.633 31.6639 316.922 30.9139 317.5 30.2733C318.094 29.6326 318.789 29.3123 319.586 29.3123C320.477 29.3123 321.203 29.617 321.766 30.2264C322.344 30.8201 322.633 31.5154 322.633 32.3123ZM348.953 59.3826C347.984 61.2264 346.688 62.6951 345.062 63.7889C343.438 64.8826 341.57 65.4295 339.461 65.4295C337.602 65.4295 335.969 65.1014 334.562 64.4451C333.172 63.7889 332.023 62.8983 331.117 61.7733C330.211 60.6483 329.531 59.3358 329.078 57.8358C328.641 56.3358 328.422 54.7498 328.422 53.0779C328.422 51.5779 328.656 50.1092 329.125 48.6717C329.609 47.2186 330.312 45.9139 331.234 44.7576C332.125 43.6483 333.227 42.7576 334.539 42.0858C335.867 41.3983 337.352 41.0545 338.992 41.0545C340.68 41.0545 342.125 41.3201 343.328 41.8514C344.531 42.3826 345.508 43.1092 346.258 44.0311C346.977 44.9061 347.508 45.9373 347.852 47.1248C348.211 48.3123 348.391 49.6014 348.391 50.992V52.5389H333.086C333.086 54.0545 333.227 55.4295 333.508 56.6639C333.805 57.8983 334.266 58.9842 334.891 59.9217C335.5 60.8279 336.297 61.5467 337.281 62.0779C338.266 62.5936 339.438 62.8514 340.797 62.8514C342.188 62.8514 343.383 62.5311 344.383 61.8904C345.398 61.2342 346.375 60.0623 347.312 58.3748L348.953 59.3826ZM343.773 50.5701C343.773 49.6951 343.695 48.7576 343.539 47.7576C343.398 46.7576 343.164 45.9217 342.836 45.2498C342.477 44.5311 341.984 43.9451 341.359 43.492C340.734 43.0389 339.93 42.8123 338.945 42.8123C337.305 42.8123 335.938 43.4998 334.844 44.8748C333.766 46.2342 333.18 48.1326 333.086 50.5701H343.773ZM386.055 43.2108C385.398 43.2733 384.688 43.5467 383.922 44.0311C383.172 44.5154 382.625 45.242 382.281 46.2108C381.5 48.5076 380.758 50.6873 380.055 52.7498C379.367 54.7967 378.594 57.1014 377.734 59.6639C377.453 60.4764 377.164 61.3514 376.867 62.2889C376.586 63.2264 376.328 64.1248 376.094 64.9842H374.078L367.867 47.9686L361.609 64.9842H359.688C358.516 61.5154 357.367 58.0779 356.242 54.6717C355.133 51.2498 354.148 48.2733 353.289 45.742C353.039 45.0076 352.562 44.4295 351.859 44.0076C351.156 43.5858 350.477 43.3358 349.82 43.2576V41.7108H360.133V43.3514C359.617 43.367 359.055 43.4529 358.445 43.6092C357.852 43.7654 357.555 44.0233 357.555 44.3826C357.555 44.4451 357.578 44.5779 357.625 44.7811C357.688 44.9842 357.758 45.2029 357.836 45.4373C358.336 47.0779 358.898 48.9139 359.523 50.9451C360.164 52.9608 360.984 55.5858 361.984 58.8201L367.891 42.1795H370.141L376.164 58.5858C376.836 56.492 377.5 54.4686 378.156 52.5154C378.828 50.5467 379.414 48.7029 379.914 46.9842C380.023 46.5779 380.125 46.2108 380.219 45.8826C380.328 45.5389 380.383 45.2029 380.383 44.8748C380.383 44.5936 380.258 44.3436 380.008 44.1248C379.758 43.9061 379.453 43.7264 379.094 43.5858C378.781 43.4608 378.438 43.367 378.062 43.3045C377.703 43.242 377.438 43.2108 377.266 43.2108V41.7108H386.055V43.2108Z" fill="white"></path>
</svg>
